<?xml version="1.0" encoding="utf-8"?>
<!-- Generator: Adobe Illustrator 16.0.0, SVG Export Plug-In . SVG Version: 6.00 Build 0)  -->
<!DOCTYPE svg PUBLIC "-//W3C//DTD SVG 1.1//EN" "http://www.w3.org/Graphics/SVG/1.1/DTD/svg11.dtd">
<svg version="1.1" id="Layer_1" xmlns="http://www.w3.org/2000/svg" xmlns:xlink="http://www.w3.org/1999/xlink" x="0px" y="0px"
	 width="455px" height="100px" viewBox="0 0 455 100" enable-background="new 0 0 455 100" xml:space="preserve">
<g>
	<g>
		<rect x="187" y="68" fill="#04555B" width="238" height="30"/>
		<g>
			<g>
				<path fill-rule="evenodd" clip-rule="evenodd" fill="#04555B" d="M371.563,51.439c0-15.617,0-31.232,0-47.049
					c1.963,0,3.479,0,5.242,0c0,19.05,0,37.942,0,56.884c-2.785,1.023-4.598,0.193-6.357-2.1
					c-10.869-14.151-21.873-28.199-32.836-42.28c-0.75-0.961-1.543-1.889-2.924-3.579c0,16.559,0,32.255,0,48.156
					c-1.975,0-3.496,0-5.305,0c0-18.945,0-37.938,0-56.938c2.727-0.943,4.584-0.136,6.344,2.153
					c10.881,14.147,21.885,28.195,32.848,42.271c0.721,0.926,1.471,1.834,2.203,2.748C371.038,51.618,371.3,51.527,371.563,51.439z"
					/>
				<path fill-rule="evenodd" clip-rule="evenodd" fill="#04555B" d="M287.224,4.33c1.162-0.084,2.141-0.211,3.123-0.211
					c10.316-0.015,20.635-0.007,30.951-0.015c1.725-0.002,3.33-0.224,3.314,2.454c-0.014,2.693-1.668,2.414-3.365,2.414
					c-8.523-0.003-17.051,0.072-25.57-0.046c-2.377-0.032-3.105,0.769-3.055,3.091c0.131,6.038,0.045,12.082,0.045,18.51
					c9.072,0,17.871,0,26.941,0c0,1.65,0,2.92,0,4.605c-8.811,0-17.609,0-26.672,0c0,7.385,0,14.354,0,21.658
					c10.451,0,20.725,0,31.303,0c0,1.687,0,3.043,0,4.643c-12.307,0-24.564,0-37.016,0C287.224,42.358,287.224,23.463,287.224,4.33z
					"/>
				<path fill-rule="evenodd" clip-rule="evenodd" fill="#04555B" d="M192.919,4.326c1.047-0.075,2.02-0.207,2.998-0.207
					c10.43-0.015,20.861,0.007,31.297-0.023c1.738-0.007,3.008,0.078,2.992,2.438c-0.018,2.313-1.217,2.465-2.992,2.456
					c-8.297-0.044-16.6-0.02-24.898-0.02c-1.217,0-2.436,0-3.893,0c0,7.336,0,14.323,0,21.63c8.975,0,17.791,0,26.848,0
					c0,1.582,0,2.856,0,4.608c-8.912,0-17.813,0-26.902,0c0,7.358,0,14.255,0,21.545c10.496,0,20.869,0,31.504,0
					c0,1.759,0,3.132,0,4.705c-12.313,0-24.49,0-36.953,0C192.919,42.505,192.919,23.519,192.919,4.326z"/>
				<path fill-rule="evenodd" clip-rule="evenodd" fill="#04555B" d="M284.448,4.632c-2.709,6.648-5.264,12.964-7.855,19.268
					c-4.777,11.611-9.59,23.211-14.348,34.821c-0.705,1.722-1.275,3.087-3.686,3.031c-2.213-0.046-2.785-1.208-3.459-2.856
					c-6.994-17.113-14.049-34.206-21.076-51.31c-0.373-0.914-0.662-1.861-0.992-2.803c5.211-1.471,5.85-1.181,7.627,3.424
					c5.488,14.212,10.971,28.429,16.467,42.639c0.385,0.995,0.857,1.96,1.537,3.5c0.691-1.584,1.154-2.561,1.547-3.573
					c5.477-14.104,10.945-28.216,16.41-42.33C278.495,3.596,278.528,3.567,284.448,4.632z"/>
				<path fill-rule="evenodd" clip-rule="evenodd" fill="#04555B" d="M399.558,61.487c0-17.586,0-34.916,0-52.672
					c-6.76,0-13.104,0-19.607,0c0-1.626,0-2.82,0-4.33c14.863,0,29.697,0,44.756,0c0,1.333,0,2.614,0,4.388
					c-5.221,0-10.357,0.192-15.473-0.072c-3.25-0.166-4.156,0.869-4.115,4.111c0.168,14.925,0.07,29.851,0.07,44.775
					c0,1.201,0,2.404,0,3.8C403.269,61.487,401.749,61.487,399.558,61.487z"/>
			</g>
			<g>
				<path fill-rule="evenodd" clip-rule="evenodd" fill="#04555B" d="M185.497,32.08c-0.406,16.502-13.932,29.4-30.393,28.991
					c-16.301-0.413-29.012-14.062-28.617-30.741c0.371-15.92,14.07-28.861,30.184-28.519
					C172.812,2.154,185.894,15.891,185.497,32.08z M155.946,50.542c10.381,0.002,18.438-8.417,18.371-19.202
					c-0.072-10.814-8.199-19.2-18.533-19.118c-10.158,0.079-18.107,8.433-18.188,19.11
					C137.517,42.165,145.522,50.542,155.946,50.542z"/>
				<path fill-rule="evenodd" clip-rule="evenodd" fill="#04555B" d="M124.952,60.42c-3.941,0-7.129,0.183-10.275-0.099
					c-1.074-0.098-2.373-1.145-3.006-2.121c-3.139-4.869-6.199-9.8-9.061-14.837c-1.164-2.05-2.508-2.929-4.863-2.735
					c-2.473,0.194-4.975,0.041-7.838,0.041c0,6.565,0,12.896,0,19.485c-3.809,0-7.258,0-10.977,0c0-19.134,0-38.267,0-57.529
					c9.617,0,19.064-0.554,28.412,0.16c8.576,0.659,14.996,7.732,16.49,16.319c1.363,7.86-2.492,15.258-10.145,19.462
					c-0.393,0.212-0.762,0.464-1.496,0.914C116.341,46.283,120.438,53.01,124.952,60.42z M89.804,21.821
					c0,2.272-0.154,4.563,0.082,6.812c0.086,0.821,1.092,2.198,1.701,2.209c4.766,0.105,9.572,0.271,14.297-0.231
					c4.547-0.486,7.535-4.663,7.371-9.244c-0.168-4.662-3.344-8.261-7.953-8.784c-2.023-0.23-4.086-0.142-6.133-0.144
					C89.796,12.421,89.796,12.43,89.804,21.821z"/>
				<path fill-rule="evenodd" clip-rule="evenodd" fill="#04555B" d="M29.911,2.522c9.498,0,18.609-0.432,27.66,0.114
					c10.1,0.613,17.791,9.931,17.49,20.121c-0.303,10.09-7.99,18.103-18.186,18.627c-5.182,0.269-10.385,0.05-15.859,0.05
					c0,6.615,0,12.502,0,18.688c-3.832,0-7.369,0-11.105,0C29.911,40.966,29.911,21.91,29.911,2.522z M40.69,22.201
					c0.092,0.007,0.186,0.015,0.277,0.023c0,2.378-0.146,4.771,0.082,7.132c0.08,0.819,1.076,2.212,1.672,2.221
					c4.639,0.079,9.322,0.227,13.91-0.319c4.75-0.562,7.789-4.869,7.646-9.771c-0.139-4.759-3.287-8.239-8.207-8.87
					c-1.789-0.229-3.623-0.194-5.432-0.147c-3.041,0.071-7.307-0.904-8.793,0.681C40.165,14.952,40.968,19.083,40.69,22.201z"/>
			</g>
		</g>
		<g>
			<path fill="#FFFFFF" d="M361.976,74.106h1.949h1.963v1.559c1.664-1.374,3.635-2.06,5.92-2.051c2.43,0,4.498,0.767,6.201,2.302
				s2.555,3.392,2.555,5.571c0,2.179-0.852,4.029-2.555,5.556c-1.703,1.524-3.777,2.286-6.217,2.286
				c-2.107-0.008-3.965-0.592-5.563-1.748v6.173h-2.119h-2.135V74.106z M371.122,86.128c1.467,0,2.691-0.445,3.686-1.336
				c0.99-0.891,1.486-1.993,1.486-3.305c0-1.322-0.49-2.434-1.48-3.326c-0.986-0.897-2.209-1.342-3.678-1.342
				c-1.463,0-2.688,0.441-3.676,1.335c-0.986,0.889-1.48,1.997-1.48,3.318c0,1.323,0.494,2.429,1.48,3.319
				C368.448,85.683,369.669,86.128,371.122,86.128z"/>
			<path fill="#FFFFFF" d="M391.19,89.329c-2.432,0-4.502-0.762-6.215-2.286c-1.717-1.526-2.574-3.377-2.574-5.556
				c0-2.18,0.857-4.036,2.574-5.571c1.713-1.535,3.791-2.302,6.232-2.302c2.357,0,4.355,0.704,6,2.115v-1.623h3.908v14.729h-1.947
				h-1.961v-1.609C395.544,88.624,393.538,89.321,391.19,89.329z M391.892,76.819c-1.484,0-2.727,0.444-3.725,1.342
				c-0.996,0.893-1.494,2.004-1.494,3.326c0,1.312,0.498,2.414,1.494,3.305c0.998,0.891,2.238,1.336,3.711,1.336
				c1.484,0,2.729-0.445,3.727-1.336c1.006-0.891,1.506-1.996,1.506-3.319c0-1.321-0.498-2.43-1.494-3.318
				C394.618,77.261,393.376,76.819,391.892,76.819z"/>
			<path fill="#FFFFFF" d="M410.556,93.803h-2.242h-2.258l3.283-6.287v0.014l-6.477-13.423h2.4h2.402l4.023,9.622h0.02l4.326-9.622
				h2.396h2.41L410.556,93.803z"/>
		</g>
	</g>
</g>
</svg>
